<?xml version="1.0" encoding="utf-8"?>
<!-- Generator: Adobe Illustrator 24.3.0, SVG Export Plug-In . SVG Version: 6.00 Build 0)  -->
<svg version="1.1" id="Layer_1" xmlns="http://www.w3.org/2000/svg" xmlns:xlink="http://www.w3.org/1999/xlink" x="0px" y="0px"
	 viewBox="0 0 944.6 1080" style="enable-background:new 0 0 944.6 1080;" xml:space="preserve">
<style type="text/css">
	.st0{fill:url(#path156_3_);}
	.st1{fill:url(#path176_3_);}
	.st2{fill:url(#path276_3_);}
	.st3{fill:url(#path354_3_);}
	.st4{fill:url(#path256-9_3_);}
	.st5{fill:url(#path256-9-3_3_);}
	.st6{fill:url(#path256-9-3-4_3_);}
	.st7{fill:#FFFFFF;}
	.st8{fill:url(#path156_7_);}
	.st9{fill:url(#path176_7_);}
	.st10{fill:url(#path276_7_);}
	.st11{fill:url(#path354_7_);}
	.st12{fill:url(#path256-9_7_);}
	.st13{fill:url(#path256-9-3_7_);}
	.st14{fill:url(#path256-9-3-4_7_);}
	.st15{fill:url(#path156_8_);}
	.st16{fill:url(#path176_8_);}
	.st17{fill:url(#path276_8_);}
	.st18{fill:url(#path354_8_);}
	.st19{fill:url(#path256-9_8_);}
	.st20{fill:url(#path256-9-3_8_);}
	.st21{fill:url(#path256-9-3-4_8_);}
	.st22{fill:url(#path156_9_);}
	.st23{fill:url(#path176_9_);}
	.st24{fill:url(#path276_9_);}
	.st25{fill:url(#path354_9_);}
	.st26{fill:url(#path256-9_9_);}
	.st27{fill:url(#path256-9-3_9_);}
	.st28{fill:url(#path256-9-3-4_9_);}
	.st29{fill:url(#path156_10_);}
	.st30{fill:url(#path176_10_);}
	.st31{fill:url(#path276_10_);}
	.st32{fill:url(#path354_10_);}
	.st33{fill:url(#path256-9_10_);}
	.st34{fill:url(#path256-9-3_10_);}
	.st35{fill:url(#path256-9-3-4_10_);}
</style>
<g>
	<g id="g138_2_">
		<g id="g140_2_">
			<g id="g146_2_">
				<g id="g148_2_">
					
						<linearGradient id="path156_3_" gradientUnits="userSpaceOnUse" x1="-1973.7736" y1="1078.8247" x2="-1973.436" y2="1078.8247" gradientTransform="matrix(-2.2683 -285.8118 -285.8118 2.2683 304261.5312 -566118.0625)">
						<stop  offset="0" style="stop-color:#7F00FF"/>
						<stop  offset="1" style="stop-color:#DB00FF"/>
					</linearGradient>
					<path id="path156_2_" class="st0" d="M338.65,371.19l117.68,67.94l-117.65-68.07C338.68,371.1,338.66,371.14,338.65,371.19"/>
				</g>
			</g>
		</g>
	</g>
	<g id="g158_2_">
		<g id="g160_2_">
			<g id="g166_2_">
				<g id="g168_2_">
					
						<linearGradient id="path176_3_" gradientUnits="userSpaceOnUse" x1="-1974.2346" y1="1079.9172" x2="-1973.8972" y2="1079.9172" gradientTransform="matrix(-2.0424 -257.3396 -257.3396 2.0424 274445.3125 -509887.5)">
						<stop  offset="0" style="stop-color:#7F00FF"/>
						<stop  offset="1" style="stop-color:#DB00FF"/>
					</linearGradient>
					<path id="path176_2_" class="st1" d="M518.53,289.69l106.06,61.23c0.01-0.02,0.03-0.05,0.04-0.08l0,0L518.6,289.63
						C518.58,289.65,518.56,289.67,518.53,289.69"/>
				</g>
			</g>
		</g>
	</g>
	<g id="g258_2_">
		<g id="g260_2_">
			<g id="g266_2_">
				<g id="g268_2_">
					
						<linearGradient id="path276_3_" gradientUnits="userSpaceOnUse" x1="-1999.9827" y1="839.1301" x2="-1999.645" y2="839.1301" gradientTransform="matrix(-1.4557 -2.4757 -2.4757 1.4557 -444.5482 -5852.4346)">
						<stop  offset="0" style="stop-color:#7F00FF"/>
						<stop  offset="1" style="stop-color:#DB00FF"/>
					</linearGradient>
					<path id="path276_2_" class="st2" d="M336.29,350.6c0.01,0.01,0.01,0.02,0.01,0.02l0,0l105.59-60.99L336.29,350.6z"/>
				</g>
			</g>
		</g>
	</g>
	<g id="g336_2_">
		<g id="g338_2_">
			<g id="g344_2_">
				<g id="g346_2_">
					
						<linearGradient id="path354_3_" gradientUnits="userSpaceOnUse" x1="-1975.1127" y1="1078.5914" x2="-1974.7751" y2="1078.5914" gradientTransform="matrix(-167.4964 -284.8669 -284.8669 167.4964 -23154.9688 -742839.8125)">
						<stop  offset="0" style="stop-color:#7F00FF"/>
						<stop  offset="1" style="stop-color:#DB00FF"/>
					</linearGradient>
					<path id="path354_2_" class="st3" d="M330.4,384.48l111.03,64.07l-111.01-64.09C330.42,384.47,330.41,384.47,330.4,384.48"/>
				</g>
			</g>
		</g>
	</g>
	<g id="g238-1_2_" transform="matrix(-1,0,0,1,3000.462,0)">
		<g id="g240-2_2_">
			<g id="g246-7_2_">
				<g id="g248-0_2_">
					
						<linearGradient id="path256-9_3_" gradientUnits="userSpaceOnUse" x1="3817.6184" y1="-708.8094" x2="3817.4497" y2="-562.9471" gradientTransform="matrix(-1.3333 0 0 1.3333 7610.4619 1226.3335)">
						<stop  offset="0" style="stop-color:#1457A8"/>
						<stop  offset="0.1117" style="stop-color:#2251AE;stop-opacity:0.9665"/>
						<stop  offset="0.3219" style="stop-color:#4641BE;stop-opacity:0.9034"/>
						<stop  offset="0.6079" style="stop-color:#8028D7;stop-opacity:0.8176"/>
						<stop  offset="0.9558" style="stop-color:#D005FA;stop-opacity:0.7133"/>
						<stop  offset="1" style="stop-color:#DB00FF;stop-opacity:0.7"/>
					</linearGradient>
					<path id="path256-9_2_" class="st4" d="M2376.27,350.62l-16.62,9.6l136.65,78.91c5.99-6.26,14.42-10.16,23.77-10.16l0,0
						c9.4,0,17.88,3.94,23.87,10.27l0,0l0.79-0.46l136.05-78.5l-16.21-9.37l-106.06-61.23c-10.3,8.81-23.67,14.12-38.28,14.12l0,0
						c-14.65,0-28.05-5.34-38.35-14.18l0,0L2376.27,350.62z"/>
				</g>
			</g>
		</g>
	</g>
	<g id="g238-1-8_2_" transform="matrix(0.5,0.8660254,0.8660254,-0.5,-318.77452,542.07926)">
		<g id="g240-2-4_2_">
			<g id="g246-7-5_2_">
				<g id="g248-0-0_2_">
					
						<linearGradient id="path256-9-3_3_" gradientUnits="userSpaceOnUse" x1="-601.2368" y1="792.6934" x2="-601.4305" y2="625.4371" gradientTransform="matrix(-1.3333 0 0 1.3333 -308.4473 -231.899)">
						<stop  offset="0" style="stop-color:#1457A8"/>
						<stop  offset="0.1469" style="stop-color:#2B4DB2;stop-opacity:0.9559"/>
						<stop  offset="0.4551" style="stop-color:#6633CC;stop-opacity:0.8635"/>
						<stop  offset="0.8959" style="stop-color:#C40AF5;stop-opacity:0.7312"/>
						<stop  offset="1" style="stop-color:#DB00FF;stop-opacity:0.7"/>
					</linearGradient>
					<path id="path256-9-3_2_" class="st5" d="M496.81,660.78l0-19.19l-136.67,78.89c2.43,8.32,1.59,17.57-3.09,25.66l0,0
						c-4.7,8.14-12.35,13.51-20.83,15.53l0,0l0,0.91l-0.05,157.07l16.22-9.36l106.06-61.24c-2.48-13.32-0.4-27.56,6.91-40.22l0,0
						c7.33-12.69,18.65-21.62,31.46-26.13l0,0L496.81,660.78z"/>
				</g>
			</g>
		</g>
	</g>
	<g id="g238-1-8-6_2_" transform="matrix(0.5,-0.8660254,-0.8660254,-0.5,1812.6183,3140.688)">
		<g id="g240-2-4-1_2_">
			<g id="g246-7-5-5_2_">
				<g id="g248-0-0-5_2_">
					
						<linearGradient id="path256-9-3-4_3_" gradientUnits="userSpaceOnUse" x1="1274.736" y1="3607.269" x2="1274.5895" y2="3480.7834" gradientTransform="matrix(-1.3333 0 0 1.3333 3203.2175 -2229.4512)">
						<stop  offset="0" style="stop-color:#1457A8"/>
						<stop  offset="0.1129" style="stop-color:#1A55AA;stop-opacity:0.9661"/>
						<stop  offset="0.2572" style="stop-color:#294EB1;stop-opacity:0.9228"/>
						<stop  offset="0.4186" style="stop-color:#4442BD;stop-opacity:0.8744"/>
						<stop  offset="0.5924" style="stop-color:#6832CD;stop-opacity:0.8223"/>
						<stop  offset="0.7761" style="stop-color:#971EE1;stop-opacity:0.7672"/>
						<stop  offset="0.9655" style="stop-color:#D005FA;stop-opacity:0.7103"/>
						<stop  offset="1" style="stop-color:#DB00FF;stop-opacity:0.7"/>
					</linearGradient>
					<path id="path256-9-3-4_2_" class="st6" d="M1629.53,2673.82l16.62,9.6l0.01-157.8c-8.42-2.06-16.01-7.41-20.68-15.5l0,0
						c-4.7-8.14-5.52-17.45-3.04-25.8l0,0l-0.79-0.45l-136-78.58l-0.01,18.72l0,122.47c12.77,4.51,24.07,13.44,31.37,26.09l0,0
						c7.33,12.69,9.4,26.96,6.9,40.31l0,0L1629.53,2673.82z"/>
				</g>
			</g>
		</g>
	</g>
	<g>
		<path class="st7" d="M170.12,724.85c0.85,0.85,2.07,1.27,3.66,1.27h37.46c1.1,0,1.64,0.53,1.64,1.59v3.09
			c0,1.1-0.55,1.64-1.64,1.64h-39.35c-3.32,0-5.85-0.89-7.6-2.67c-1.74-1.78-2.61-4.31-2.61-7.6v-22.96c0-1.1,0.53-1.64,1.59-1.64
			h3.98c1.06,0,1.59,0.55,1.59,1.64v21.97C168.85,722.78,169.28,724,170.12,724.85z"/>
		<path class="st7" d="M239.24,732.45c-3.32,0-5.85-0.89-7.6-2.67c-1.74-1.78-2.62-4.31-2.62-7.6v-14.35c0-3.29,0.87-5.82,2.62-7.6
			c1.74-1.78,4.28-2.67,7.6-2.67h35.17c3.32,0,5.85,0.89,7.6,2.67c1.74,1.78,2.61,4.31,2.61,7.6v14.35c0,3.29-0.87,5.82-2.61,7.6
			c-1.74,1.78-4.28,2.67-7.6,2.67H239.24z M272.51,726.12c1.59,0,2.81-0.42,3.66-1.27c0.85-0.85,1.27-2.07,1.27-3.66v-12.35
			c0-1.59-0.42-2.81-1.27-3.66c-0.85-0.85-2.07-1.27-3.66-1.27h-31.38c-1.59,0-2.81,0.42-3.66,1.27c-0.85,0.85-1.27,2.07-1.27,3.66
			v12.35c0,1.59,0.42,2.81,1.27,3.66c0.85,0.85,2.07,1.27,3.66,1.27H272.51z"/>
		<path class="st7" d="M305.36,729.78c-1.74-1.78-2.62-4.31-2.62-7.6v-14.35c0-3.29,0.87-5.82,2.62-7.6
			c1.74-1.78,4.28-2.67,7.6-2.67h40.35c1.06,0,1.59,0.55,1.59,1.64v3.09c0,1.06-0.53,1.59-1.59,1.59h-38.45
			c-1.59,0-2.81,0.42-3.66,1.27c-0.85,0.85-1.27,2.07-1.27,3.66v12.35c0,1.59,0.42,2.81,1.27,3.66c0.85,0.85,2.07,1.27,3.66,1.27
			h38.45c1.06,0,1.59,0.53,1.59,1.59v3.09c0,1.1-0.53,1.64-1.59,1.64h-40.35C309.63,732.45,307.1,731.56,305.36,729.78z"/>
		<path class="st7" d="M379.85,711.83h21.52l17.63-13.3c0.5-0.36,0.94-0.61,1.32-0.75c0.38-0.13,0.92-0.2,1.62-0.2h6.18
			c0.46,0,0.75,0.23,0.87,0.7c0.12,0.47-0.04,0.85-0.47,1.15l-20.57,15.49l20.87,15.69c0.4,0.3,0.54,0.68,0.42,1.15
			c-0.12,0.47-0.41,0.7-0.87,0.7h-6.43c-0.7,0-1.24-0.07-1.62-0.2c-0.38-0.13-0.81-0.38-1.27-0.75l-17.63-13.3h-21.57v12.6
			c0,1.1-0.55,1.64-1.64,1.64h-3.93c-1.1,0-1.64-0.55-1.64-1.64v-31.58c0-1.1,0.55-1.64,1.64-1.64h3.93c1.1,0,1.64,0.55,1.64,1.64
			V711.83z"/>
		<path class="st7" d="M451.48,707.59v0.65c0,1.3,0.36,2.23,1.1,2.81c0.73,0.58,1.84,0.87,3.34,0.87h31.83
			c1.66,0,3.15,0.15,4.48,0.45c1.33,0.3,2.45,0.8,3.36,1.49c0.91,0.7,1.62,1.6,2.12,2.71c0.5,1.11,0.75,2.48,0.75,4.11v2.94
			c0,1.63-0.25,3.01-0.75,4.13c-0.5,1.13-1.2,2.04-2.12,2.74c-0.91,0.7-2.03,1.19-3.36,1.49c-1.33,0.3-2.82,0.45-4.48,0.45h-41.09
			c-1.06,0-1.59-0.55-1.59-1.64v-3.09c0-1.06,0.53-1.59,1.59-1.59h40.15c1.53,0,2.65-0.29,3.36-0.87c0.71-0.58,1.07-1.52,1.07-2.81
			v-0.65c0-1.29-0.36-2.23-1.07-2.81c-0.71-0.58-1.84-0.87-3.36-0.87h-31.83c-1.66,0-3.15-0.15-4.46-0.45
			c-1.31-0.3-2.42-0.8-3.34-1.49c-0.91-0.7-1.62-1.6-2.12-2.71c-0.5-1.11-0.75-2.48-0.75-4.11v-2.94c0-1.63,0.25-3.01,0.75-4.13
			c0.5-1.13,1.2-2.04,2.12-2.74c0.91-0.7,2.03-1.2,3.34-1.49c1.31-0.3,2.8-0.45,4.46-0.45h40.6c1.1,0,1.64,0.55,1.64,1.64v3.09
			c0,1.06-0.55,1.59-1.64,1.59h-39.65C452.95,703.91,451.48,705.13,451.48,707.59z"/>
		<path class="st7" d="M543.83,730.8c0,1.1-0.53,1.64-1.59,1.64h-3.93c-1.1,0-1.64-0.55-1.64-1.64v-26.9h-21.97
			c-1.06,0-1.59-0.53-1.59-1.59v-3.09c0-1.1,0.53-1.64,1.59-1.64h51.16c1.1,0,1.64,0.55,1.64,1.64v3.09c0,1.06-0.55,1.59-1.64,1.59
			h-22.02V730.8z"/>
		<path class="st7" d="M593.49,732.45c-3.32,0-5.85-0.89-7.6-2.67c-1.74-1.78-2.62-4.31-2.62-7.6v-14.35c0-3.29,0.87-5.82,2.62-7.6
			c1.74-1.78,4.28-2.67,7.6-2.67h35.17c3.32,0,5.85,0.89,7.6,2.67c1.74,1.78,2.61,4.31,2.61,7.6v14.35c0,3.29-0.87,5.82-2.61,7.6
			c-1.74,1.78-4.28,2.67-7.6,2.67H593.49z M626.76,726.12c1.59,0,2.81-0.42,3.66-1.27c0.85-0.85,1.27-2.07,1.27-3.66v-12.35
			c0-1.59-0.42-2.81-1.27-3.66c-0.85-0.85-2.07-1.27-3.66-1.27h-31.38c-1.59,0-2.81,0.42-3.66,1.27c-0.85,0.85-1.27,2.07-1.27,3.66
			v12.35c0,1.59,0.42,2.81,1.27,3.66c0.85,0.85,2.07,1.27,3.66,1.27H626.76z"/>
		<path class="st7" d="M659.86,700.24c1.74-1.78,4.28-2.67,7.6-2.67h33.67c3.32,0,5.86,0.89,7.62,2.67c1.76,1.78,2.64,4.31,2.64,7.6
			v22.96c0,1.1-0.55,1.64-1.64,1.64h-3.93c-1.1,0-1.64-0.55-1.64-1.64v-21.97c0-1.59-0.42-2.81-1.25-3.66
			c-0.83-0.85-2.06-1.27-3.69-1.27h-29.89c-1.59,0-2.81,0.42-3.66,1.27c-0.85,0.85-1.27,2.07-1.27,3.66v21.97
			c0,1.1-0.53,1.64-1.59,1.64h-3.98c-1.06,0-1.59-0.55-1.59-1.64v-22.96C657.24,704.55,658.12,702.02,659.86,700.24z"/>
		<path class="st7" d="M736.94,721.19c0,1.59,0.42,2.81,1.27,3.66c0.85,0.85,2.07,1.27,3.66,1.27h39.4c1.1,0,1.64,0.53,1.64,1.59
			v3.09c0,1.1-0.55,1.64-1.64,1.64h-41.29c-3.32,0-5.85-0.89-7.6-2.67c-1.74-1.78-2.62-4.31-2.62-7.6v-14.35
			c0-3.29,0.87-5.82,2.62-7.6c1.74-1.78,4.28-2.67,7.6-2.67h41.29c1.1,0,1.64,0.55,1.64,1.64v3.09c0,1.06-0.55,1.59-1.64,1.59h-39.4
			c-1.59,0-2.81,0.42-3.66,1.27c-0.85,0.85-1.27,2.07-1.27,3.66v3.09h39.35c1.1,0,1.64,0.55,1.64,1.64v2.89
			c0,1.1-0.55,1.64-1.64,1.64h-39.35V721.19z"/>
		<path class="st7" d="M272.33,758.52v5h-8.71v26.53h-6.3v-26.53h-8.67v-5H272.33z"/>
		<path class="st7" d="M292.61,763.52v8.17h11.17v4.82h-11.17v8.49h12.51v5.05h-18.81v-31.54h18.81v5H292.61z"/>
		<path class="st7" d="M344.3,761.24c2.59,2.03,4.3,4.78,5.14,8.26h-6.61c-0.69-1.7-1.75-3.04-3.19-4.02
			c-1.45-0.98-3.18-1.47-5.2-1.47c-1.67,0-3.17,0.42-4.51,1.25c-1.34,0.83-2.38,2.03-3.13,3.57c-0.74,1.55-1.12,3.37-1.12,5.45
			c0,2.05,0.37,3.86,1.12,5.41c0.74,1.55,1.79,2.74,3.13,3.57c1.34,0.83,2.84,1.25,4.51,1.25c2.03,0,3.76-0.49,5.2-1.47
			c1.44-0.98,2.51-2.32,3.19-4.02h6.61c-0.83,3.48-2.55,6.24-5.14,8.26c-2.59,2.03-5.85,3.04-9.78,3.04c-3.01,0-5.67-0.68-7.97-2.03
			c-2.31-1.35-4.1-3.25-5.36-5.7c-1.27-2.44-1.9-5.21-1.9-8.31c0-3.13,0.63-5.91,1.9-8.35c1.27-2.44,3.04-4.34,5.34-5.7
			c2.29-1.36,4.96-2.03,8-2.03C338.45,758.21,341.71,759.22,344.3,761.24z"/>
		<path class="st7" d="M390.8,758.52v31.54h-6.34v-13.71h-13.49v13.71h-6.3v-31.54h6.3v12.78h13.49v-12.78H390.8z"/>
		<path class="st7" d="M433.73,790.06h-6.3l-14.12-21.44v21.44h-6.3v-31.54h6.3l14.12,21.62v-21.62h6.3V790.06z"/>
		<path class="st7" d="M472.75,760.13c2.4,1.37,4.29,3.28,5.67,5.74c1.39,2.46,2.08,5.23,2.08,8.33c0,3.1-0.69,5.88-2.08,8.35
			c-1.38,2.47-3.28,4.39-5.67,5.76c-2.4,1.37-5.07,2.05-8.02,2.05c-2.95,0-5.62-0.68-8.02-2.05c-2.4-1.37-4.29-3.29-5.67-5.76
			c-1.38-2.47-2.08-5.26-2.08-8.35c0-3.1,0.69-5.87,2.08-8.33c1.39-2.46,3.28-4.37,5.67-5.74c2.4-1.37,5.07-2.05,8.02-2.05
			C467.68,758.07,470.35,758.76,472.75,760.13z M459.86,765.13c-1.4,0.83-2.49,2.03-3.28,3.6c-0.79,1.56-1.18,3.39-1.18,5.47
			c0,2.08,0.39,3.91,1.18,5.47c0.79,1.56,1.88,2.76,3.28,3.6c1.4,0.83,3.02,1.25,4.87,1.25c1.85,0,3.47-0.42,4.87-1.25
			c1.4-0.83,2.49-2.03,3.28-3.6c0.79-1.56,1.18-3.39,1.18-5.47c0-2.08-0.4-3.91-1.18-5.47c-0.79-1.56-1.88-2.76-3.28-3.6
			c-1.4-0.83-3.02-1.25-4.87-1.25C462.88,763.88,461.26,764.3,459.86,765.13z"/>
		<path class="st7" d="M502.03,785.23h10.59v4.82h-16.89v-31.54h6.3V785.23z"/>
		<path class="st7" d="M549.67,760.13c2.4,1.37,4.29,3.28,5.67,5.74c1.39,2.46,2.08,5.23,2.08,8.33c0,3.1-0.69,5.88-2.08,8.35
			c-1.38,2.47-3.28,4.39-5.67,5.76c-2.4,1.37-5.07,2.05-8.02,2.05c-2.95,0-5.62-0.68-8.02-2.05c-2.4-1.37-4.29-3.29-5.67-5.76
			c-1.38-2.47-2.08-5.26-2.08-8.35c0-3.1,0.69-5.87,2.08-8.33c1.39-2.46,3.28-4.37,5.67-5.74c2.4-1.37,5.07-2.05,8.02-2.05
			C544.6,758.07,547.27,758.76,549.67,760.13z M536.78,765.13c-1.4,0.83-2.49,2.03-3.28,3.6c-0.79,1.56-1.18,3.39-1.18,5.47
			c0,2.08,0.39,3.91,1.18,5.47c0.79,1.56,1.88,2.76,3.28,3.6c1.4,0.83,3.02,1.25,4.87,1.25c1.85,0,3.47-0.42,4.87-1.25
			c1.4-0.83,2.49-2.03,3.28-3.6c0.79-1.56,1.18-3.39,1.18-5.47c0-2.08-0.4-3.91-1.18-5.47c-0.79-1.56-1.88-2.76-3.28-3.6
			c-1.4-0.83-3.02-1.25-4.87-1.25C539.81,763.88,538.18,764.3,536.78,765.13z"/>
		<path class="st7" d="M596.82,761.04c2.53,1.89,4.15,4.44,4.87,7.66h-6.61c-0.63-1.43-1.62-2.57-2.97-3.42
			c-1.36-0.85-2.96-1.27-4.8-1.27c-1.82,0-3.43,0.42-4.82,1.25c-1.4,0.83-2.49,2.03-3.26,3.57c-0.77,1.55-1.16,3.37-1.16,5.45
			c0,3.31,0.89,5.88,2.66,7.73c1.77,1.85,4.19,2.77,7.26,2.77c2.26,0,4.21-0.67,5.83-2.01c1.62-1.34,2.67-3.2,3.15-5.58h-10.68
			v-4.51h15.95v6.08c-0.45,2.08-1.32,4.01-2.61,5.76c-1.3,1.76-2.99,3.17-5.09,4.22c-2.1,1.06-4.5,1.59-7.21,1.59
			c-3.1,0-5.83-0.68-8.2-2.03c-2.37-1.35-4.2-3.25-5.49-5.67c-1.3-2.43-1.94-5.2-1.94-8.33c0-3.13,0.65-5.9,1.94-8.33
			c1.3-2.43,3.12-4.33,5.47-5.7c2.35-1.37,5.08-2.05,8.17-2.05C591.1,758.21,594.29,759.15,596.82,761.04z"/>
		<path class="st7" d="M623.76,758.52v31.54h-6.3v-31.54H623.76z"/>
		<path class="st7" d="M646.27,763.52v8.17h11.17v4.82h-11.17v8.49h12.51v5.05h-18.81v-31.54h18.81v5H646.27z"/>
		<path class="st7" d="M694.38,785.88c-0.8,1.36-2,2.44-3.57,3.26c-1.58,0.82-3.5,1.23-5.76,1.23c-2.23,0-4.23-0.38-5.99-1.14
			c-1.76-0.76-3.16-1.85-4.22-3.28c-1.06-1.43-1.66-3.1-1.81-5h6.7c0.15,1.28,0.66,2.35,1.54,3.19c0.88,0.85,2.05,1.27,3.51,1.27
			c1.31,0,2.32-0.35,3.02-1.05c0.7-0.7,1.05-1.6,1.05-2.7c0-0.98-0.28-1.79-0.85-2.43c-0.57-0.64-1.28-1.15-2.14-1.54
			c-0.86-0.39-2.05-0.83-3.57-1.34c-1.97-0.65-3.57-1.3-4.82-1.94c-1.25-0.64-2.32-1.57-3.19-2.79c-0.88-1.22-1.32-2.81-1.32-4.78
			c0-2.71,0.97-4.85,2.93-6.41c1.95-1.56,4.53-2.35,7.75-2.35c3.34,0,5.99,0.8,7.97,2.41c1.98,1.61,3.1,3.75,3.37,6.43h-6.79
			c-0.18-1.13-0.66-2.06-1.43-2.79c-0.77-0.73-1.83-1.09-3.17-1.09c-1.16,0-2.1,0.31-2.81,0.92c-0.71,0.61-1.07,1.5-1.07,2.66
			c0,0.92,0.28,1.69,0.83,2.3c0.55,0.61,1.25,1.11,2.1,1.5c0.85,0.39,2,0.82,3.46,1.3c2.02,0.72,3.67,1.39,4.94,2.01
			c1.27,0.62,2.35,1.56,3.24,2.81c0.89,1.25,1.34,2.89,1.34,4.91C695.59,783.04,695.19,784.52,694.38,785.88z"/>
	</g>
</g>
</svg>
