<?xml version="1.0" encoding="UTF-8" standalone="no" ?>
<!DOCTYPE svg PUBLIC "-//W3C//DTD SVG 1.1//EN" "http://www.w3.org/Graphics/SVG/1.1/DTD/svg11.dtd">
<svg xmlns="http://www.w3.org/2000/svg" xmlns:xlink="http://www.w3.org/1999/xlink" version="1.1" width="1080" height="1080" viewBox="0 0 1080 1080" xml:space="preserve">
<desc>Created with Fabric.js 5.2.4</desc>
<defs>
</defs>
<g transform="matrix(1 0 0 1 540 540)" id="2f2d7b06-1722-4709-8eb4-edae713838ff"  >
<rect style="stroke: none; stroke-width: 1; stroke-dasharray: none; stroke-linecap: butt; stroke-dashoffset: 0; stroke-linejoin: miter; stroke-miterlimit: 4; fill: rgb(255,255,255); fill-rule: nonzero; opacity: 1; visibility: hidden;" vector-effect="non-scaling-stroke"  x="-540" y="-540" rx="0" ry="0" width="1080" height="1080" />
</g>
<g transform="matrix(1 0 0 1 540 540)" id="827ceaff-cba2-4ce2-9fdc-a794b4f289d8"  >
</g>
<g transform="matrix(0 1 -1 0 540 540)" id="531cf8d7-f05c-4213-bfe4-01b7eaa64b77"  >
<path style="stroke: rgb(0,0,0); stroke-width: 0; stroke-dasharray: none; stroke-linecap: butt; stroke-dashoffset: 0; stroke-linejoin: miter; stroke-miterlimit: 4; fill: rgb(0,0,0); fill-rule: nonzero; opacity: 1;" vector-effect="non-scaling-stroke"  transform=" translate(-241.57, -241.57)" d="M 68.392 209.562 C 119.392 263.862 169.59199999999998 318.762 222.892 371.262 L 223.09199999999998 371.462 C 230.492 378.762 242.392 378.662 249.69199999999998 371.262 C 262.292 358.462 274.892 345.462 287.192 332.262 C 295.592 324.362 303.992 316.562 312.29200000000003 308.662 C 364.992 258.262 416.89200000000005 207.06199999999998 465.29200000000003 152.86199999999997 C 479.09200000000004 137.46199999999996 487.89200000000005 122.06199999999997 480.39200000000005 116.76199999999997 C 473.59200000000004 111.86199999999997 458.89200000000005 117.96199999999997 443.19200000000006 132.26199999999997 C 415.09200000000004 157.96199999999996 386.59200000000004 183.66199999999998 359.79200000000003 210.86199999999997 C 318.39200000000005 252.76199999999997 278.09200000000004 295.76199999999994 237.39200000000002 338.26199999999994 C 170.39200000000002 258.86199999999997 91.89200000000002 188.26199999999994 19.592000000000013 112.86199999999994 C 16.192000000000014 109.26199999999994 8.192000000000013 106.26199999999994 4.692000000000013 106.26199999999994 C -2.2079999999999878 106.26199999999994 -0.6079999999999872 113.66199999999995 3.7920000000000127 122.56199999999994 C 18.592 151.762 42.092 181.662 68.392 209.562 z" stroke-linecap="round" />
</g>
</svg>